<?xml version="1.0" ?><svg viewBox="0 0 64 64" xmlns="http://www.w3.org/2000/svg"><title/><g id="seminar"><path d="M21,16a9,9,0,1,0,9,9A9,9,0,0,0,21,16Zm0,16a7,7,0,0,1-1-13.92V25a1,1,0,0,0,1,1h6.92A7,7,0,0,1,21,32Z"/><path d="M34,18h7a1,1,0,0,0,0-2H34a1,1,0,0,0,0,2Z"/><path d="M34,26H51a1,1,0,0,0,0-2H34a1,1,0,0,0,0,2Z"/><path d="M34,34H51a1,1,0,0,0,0-2H34a1,1,0,0,0,0,2Z"/><path d="M57,40.14V9.86A4,4,0,0,0,56,2H8A4,4,0,0,0,7,9.86V40.14A4,4,0,0,0,8,48H31v6.14a4,4,0,1,0,2,0V48H56a4,4,0,0,0,1-7.86ZM34,58a2,2,0,1,1-2-2A2,2,0,0,1,34,58ZM55,40H9V10H55Z"/></g></svg>