<?xml version="1.0" ?><!DOCTYPE svg  PUBLIC '-//W3C//DTD SVG 1.1//EN'  'http://www.w3.org/Graphics/SVG/1.1/DTD/svg11.dtd'><svg height="512px" style="enable-background:new 0 0 512 512;" version="1.1" viewBox="0 0 512 512" width="512px" xml:space="preserve" xmlns="http://www.w3.org/2000/svg" xmlns:xlink="http://www.w3.org/1999/xlink"><g id="C_-_98_x2C__conference_x2C__Business_x2C__event_x2C__presentation_x2C__room_x2C__speaker_x2C__speech"><g><polygon points="231.59,269.193 231.59,242.809 218.311,242.809 56.666,242.809 43.388,242.809 43.388,269.193 56.666,269.193     218.311,269.193   "/><rect height="115.721" width="62.455" x="106.269" y="315.279"/><path d="M213.626,193.058c0-16.923-13.845-30.692-30.862-30.692H92.564c-17.211,0-31.213,13.926-31.213,31.043v40.028h152.275    V193.058z M146.471,220.247h-17.935v-17.849h17.935V220.247z M146.471,193.432h-17.935v-17.851h17.935V193.432z"/><polygon points="303.819,185.867 342.143,166.799 303.819,147.727   "/><path d="M463.928,456.461H213.626v-123.84h249.575c2.588,0,4.686-2.098,4.686-4.686V50.854c0-1.244-0.494-2.436-1.374-3.314    c-0.878-0.877-2.069-1.371-3.312-1.371c-0.002,0-0.004,0-0.005,0l-325.469,0.356c-0.081-0.001-0.159-0.006-0.24-0.006    c-0.088,0-0.174,0.006-0.262,0.006l-4.037,0.004c-0.735,0.001-1.421,0.186-2.041,0.489c-19.173,3.02-33.876,19.505-33.876,39.331    c0,21.963,18.041,39.832,40.216,39.832c22.177,0,40.219-17.869,40.219-39.832c0-12.221-5.592-23.169-14.369-30.481l295.178-0.322    V323.25h-244.89v-44.686H61.351v187.268h151.126h1.149h250.302c2.588,0,4.686-2.098,4.686-4.686S466.516,456.461,463.928,456.461z     M178.095,435.686c0,2.588-2.099,4.686-4.686,4.686h-71.826c-2.588,0-4.686-2.098-4.686-4.686V310.594    c0-2.588,2.098-4.686,4.686-4.686h71.826c2.587,0,4.686,2.098,4.686,4.686V435.686z"/></g></g><g id="Layer_1"/></svg>